<svg xmlns="http://www.w3.org/2000/svg" viewBox="0 0 500 500"><g id="freepik--background-complete--inject-68"><rect y="382.4" width="500" height="0.25" style="fill:#ebebeb"></rect><rect x="416.78" y="398.49" width="33.12" height="0.25" style="fill:#ebebeb"></rect><rect x="322.53" y="401.21" width="8.69" height="0.25" style="fill:#ebebeb"></rect><rect x="396.59" y="389.21" width="19.19" height="0.25" style="fill:#ebebeb"></rect><rect x="52.46" y="390.89" width="43.19" height="0.25" style="fill:#ebebeb"></rect><rect x="104.56" y="390.89" width="6.33" height="0.25" style="fill:#ebebeb"></rect><rect x="131.47" y="395.11" width="93.68" height="0.25" style="fill:#ebebeb"></rect><path d="M237,337.8H43.91a5.71,5.71,0,0,1-5.7-5.71V60.66A5.71,5.71,0,0,1,43.91,55H237a5.71,5.71,0,0,1,5.71,5.71V332.09A5.71,5.71,0,0,1,237,337.8ZM43.91,55.2a5.46,5.46,0,0,0-5.45,5.46V332.09a5.46,5.46,0,0,0,5.45,5.46H237a5.47,5.47,0,0,0,5.46-5.46V60.66A5.47,5.47,0,0,0,237,55.2Z" style="fill:#ebebeb"></path><path d="M453.31,337.8H260.21a5.72,5.72,0,0,1-5.71-5.71V60.66A5.72,5.72,0,0,1,260.21,55h193.1A5.71,5.71,0,0,1,459,60.66V332.09A5.71,5.71,0,0,1,453.31,337.8ZM260.21,55.2a5.47,5.47,0,0,0-5.46,5.46V332.09a5.47,5.47,0,0,0,5.46,5.46h193.1a5.47,5.47,0,0,0,5.46-5.46V60.66a5.47,5.47,0,0,0-5.46-5.46Z" style="fill:#ebebeb"></path><path d="M395.93,366.58c.21-2.61-.14-6-3.2-7-5.18-1.71-8.25-5.72-8.07-10.26s-5.28-8.95-9.37-4.7-3.54-3.27-9-5.09-10.07,2.6-8.57,6.65-3.89,6.59-10.33,3.14-13.53,2.83-12.17,7.73.25,5.45-3.82,3.82c-3.3-1.32-8.69,1.45-9.29,5.72Z" style="fill:#e0e0e0"></path><path d="M120.58,366.58c.25-2.07.14-5.09-2.43-5.94-4-1.33-6.41-4.44-6.27-8s-4.1-6.95-7.28-3.65-2.75-2.54-7-4-7.82,2-6.66,5.17-3,5.11-8,2.44-10.51,2.19-9.45,6,.19,4.23-3,3c-2.68-1.08-7.14,1.35-7.23,4.94Z" style="fill:#e0e0e0"></path><path d="M127.24,366.58h94.11c1.32-4.41-2.1-9.71-5.83-10.45-4.58-.92-9.19-9-9.4-14.11s-8.47-20.92-21.3-11.17-8.92,1.43-18.2-1.31-15.14,5.15-11.06,11c0,0-9.33-2.33-13.17,6.37s0,14.11,0,14.11S130.61,360.73,127.24,366.58Z" style="fill:#e0e0e0"></path><path d="M275.26,119.59a4.42,4.42,0,0,1,4.43-4.42,4.49,4.49,0,0,1,1.27.19,8.8,8.8,0,0,1-.1-1.36,9.37,9.37,0,0,1,9.37-9.38,9,9,0,0,1,1.73.17,8.19,8.19,0,0,1,15.19,4.14h.13a7.55,7.55,0,1,1,0,15.1H279.56A4.42,4.42,0,0,1,275.26,119.59Z" style="fill:#f5f5f5"></path><path d="M119.29,145.69a4.42,4.42,0,0,1,5.7-4.24,10.12,10.12,0,0,1-.1-1.36,9.38,9.38,0,0,1,9.37-9.37,9.85,9.85,0,0,1,1.73.16A8.19,8.19,0,0,1,151.18,135h.13a7.55,7.55,0,0,1,0,15.1H123.59A4.43,4.43,0,0,1,119.29,145.69Z" style="fill:#f5f5f5"></path><path d="M219.73,132.85a2.75,2.75,0,0,1,2.75-2.75,2.61,2.61,0,0,1,.79.12,6,6,0,0,1-.06-.85,5.83,5.83,0,0,1,5.82-5.82,5.49,5.49,0,0,1,1.08.1,5.09,5.09,0,0,1,9.44,2.57h.09a4.69,4.69,0,1,1,0,9.38H222.4A2.75,2.75,0,0,1,219.73,132.85Z" style="fill:#f5f5f5"></path><path d="M67.74,127.48a2.75,2.75,0,0,1,2.75-2.75,2.9,2.9,0,0,1,.79.11,5.84,5.84,0,0,1,5.77-6.67,6.26,6.26,0,0,1,1.07.1,5.1,5.1,0,0,1,9.45,2.58h.08a4.7,4.7,0,0,1,0,9.39H70.42A2.75,2.75,0,0,1,67.74,127.48Z" style="fill:#f5f5f5"></path><path d="M374.52,144.11a2.76,2.76,0,0,1,2.75-2.76,2.9,2.9,0,0,1,.79.12,5.93,5.93,0,0,1-.06-.84,5.83,5.83,0,0,1,5.83-5.83,5.46,5.46,0,0,1,1.07.1,5.09,5.09,0,0,1,9.44,2.57h.09a4.7,4.7,0,0,1,0,9.39H377.19A2.74,2.74,0,0,1,374.52,144.11Z" style="fill:#f5f5f5"></path><path d="M136.47,222.57a8.64,8.64,0,0,1-.26-1.72c-.21-3.57-3.62-3-6.52-3.49-2.26-.38,3.73-6.1-.83-7.94a4,4,0,0,1-2.2-1.54,2.57,2.57,0,0,1,1-3.16,6.12,6.12,0,0,1,3.47-.87c.74-.91.14-2.27-.59-3.2s-1.6-2-1.33-3.11c.42-1.72,2.82-1.78,4.56-1.45.64-1,.63-2.34.94-3.52s1.25-2.42,2.47-2.28,1.84,1.43,3,1.7c1.3.3,2.43-.85,3.45-1.71s2.81-1.4,3.51-.27c.42.68.17,1.63.6,2.3.76,1.17,2.56.45,3.68-.38s2.89-1.57,3.68-.42a4.83,4.83,0,0,1,.43,1.19c.53,1.52,2.18,2.28,3.46,3.26s2.3,2.92,1.21,4.11c-.53.59-1.47.83-1.74,1.58-.33.94.63,1.78,1.38,2.42,1.26,1.08,1.49,4.29-.17,5.16-.7.37-1.73.49-1.9,1.26s.54,1.23,1,1.76a3.31,3.31,0,0,1-1,4.93c-.4.19-.9.35-1.05.77a1.58,1.58,0,0,0,.1.93,4.91,4.91,0,0,1,.16,1.79.8.8,0,0,1-.22.56.87.87,0,0,1-.53.15c-2.4.11-3.57-.75-5,1.35a1.59,1.59,0,0,1-.5.53,1.5,1.5,0,0,1-.66.17c-1.66.13-2.74-.9-4.25-1.09-2.1-.27-2.55.81-4.39,1.68C138.43,225.39,137,224.55,136.47,222.57Z" style="fill:#ebebeb"></path><path d="M164.21,219.57a7.87,7.87,0,0,1-.26-1.72c-.22-3.57-3.62-3-6.52-3.49-2.27-.38,3.73-6.1-.84-7.94a4,4,0,0,1-2.2-1.54,2.59,2.59,0,0,1,1-3.16,6.06,6.06,0,0,1,3.46-.87c.75-.91.14-2.27-.58-3.19s-1.6-2-1.33-3.12c.41-1.72,2.82-1.78,4.56-1.45.64-1,.63-2.34.94-3.52s1.25-2.42,2.46-2.27,1.84,1.43,3,1.69c1.31.31,2.43-.84,3.45-1.71s2.81-1.4,3.51-.26c.42.68.17,1.63.61,2.3.76,1.16,2.56.44,3.67-.39s2.9-1.57,3.68-.42a4.85,4.85,0,0,1,.44,1.19c.53,1.53,2.17,2.29,3.46,3.26s2.3,2.92,1.21,4.12c-.54.59-1.48.82-1.74,1.57-.34.94.62,1.78,1.38,2.43,1.26,1.07,1.49,4.28-.18,5.16-.7.37-1.73.48-1.9,1.25s.55,1.23,1,1.76a3.33,3.33,0,0,1-1,4.94c-.4.19-.89.34-1,.76a1.54,1.54,0,0,0,.1.94,5.07,5.07,0,0,1,.16,1.78.83.83,0,0,1-.22.56.87.87,0,0,1-.53.15c-2.41.11-3.57-.74-5,1.35a1.84,1.84,0,0,1-.5.54,1.69,1.69,0,0,1-.67.16c-1.65.14-2.73-.9-4.25-1.09-2.1-.27-2.54.82-4.39,1.69C166.16,222.39,164.75,221.55,164.21,219.57Z" style="fill:#ebebeb"></path><path d="M166.88,201.91a8.64,8.64,0,0,1-.26-1.72c-.21-3.57-3.62-3-6.52-3.49-2.26-.38,3.73-6.1-.83-7.94a4.07,4.07,0,0,1-2.21-1.54,2.59,2.59,0,0,1,1-3.16,6.1,6.1,0,0,1,3.46-.87c.75-.91.14-2.27-.58-3.2s-1.6-2-1.33-3.11c.42-1.72,2.82-1.78,4.56-1.45.64-1,.63-2.34.94-3.52s1.25-2.42,2.46-2.28,1.85,1.43,3,1.7c1.3.3,2.43-.85,3.45-1.71s2.8-1.4,3.51-.27c.42.69.17,1.63.6,2.3.76,1.17,2.56.45,3.68-.38s2.89-1.57,3.68-.42a4.83,4.83,0,0,1,.43,1.19c.53,1.52,2.18,2.28,3.46,3.26s2.3,2.92,1.21,4.11c-.53.59-1.47.83-1.74,1.58-.33.94.62,1.78,1.38,2.42,1.26,1.08,1.49,4.29-.18,5.16-.7.37-1.72.49-1.89,1.26s.54,1.23,1,1.76a3.3,3.3,0,0,1-1,4.93c-.4.19-.89.35-1,.77a1.58,1.58,0,0,0,.1.93,4.91,4.91,0,0,1,.16,1.79.8.8,0,0,1-.22.56.87.87,0,0,1-.53.15c-2.41.11-3.57-.75-5,1.35a1.69,1.69,0,0,1-.5.53,1.5,1.5,0,0,1-.66.17c-1.66.13-2.74-.9-4.25-1.09-2.1-.27-2.55.81-4.4,1.68C168.83,204.73,167.42,203.89,166.88,201.91Z" style="fill:#ebebeb"></path><path d="M185.15,210.7a8.42,8.42,0,0,1-.26-1.72c-.21-3.57-3.62-3-6.52-3.48-2.26-.38,3.73-6.1-.83-7.95a4.05,4.05,0,0,1-2.21-1.53,2.6,2.6,0,0,1,1-3.17,6.18,6.18,0,0,1,3.46-.87c.75-.9.14-2.26-.58-3.19s-1.6-2-1.33-3.11c.42-1.73,2.82-1.79,4.56-1.45.64-1,.63-2.34.94-3.52s1.25-2.43,2.46-2.28,1.85,1.43,3,1.69c1.3.31,2.43-.84,3.45-1.7s2.8-1.41,3.51-.27c.42.68.17,1.63.6,2.3.76,1.16,2.56.44,3.68-.38s2.89-1.57,3.68-.43a4.76,4.76,0,0,1,.43,1.2c.53,1.52,2.18,2.28,3.46,3.26s2.3,2.92,1.21,4.11c-.53.59-1.47.83-1.74,1.58-.33.94.62,1.78,1.38,2.42,1.26,1.07,1.49,4.28-.18,5.16-.7.37-1.72.48-1.89,1.26s.54,1.22,1,1.76a3.3,3.3,0,0,1-1,4.93c-.4.19-.89.35-1,.77a1.59,1.59,0,0,0,.1.93,4.91,4.91,0,0,1,.16,1.79.82.82,0,0,1-.22.56.87.87,0,0,1-.53.15c-2.41.1-3.57-.75-5,1.35a1.69,1.69,0,0,1-.5.53,1.5,1.5,0,0,1-.66.17c-1.66.13-2.74-.9-4.25-1.09-2.1-.27-2.55.81-4.4,1.68C187.1,213.53,185.69,212.69,185.15,210.7Z" style="fill:#ebebeb"></path><path d="M203.61,206.64a8.42,8.42,0,0,1-.26-1.72c-.21-3.57-3.62-3-6.51-3.49-2.27-.38,3.73-6.09-.84-7.94a4,4,0,0,1-2.2-1.54,2.6,2.6,0,0,1,1-3.16,6.12,6.12,0,0,1,3.47-.87c.74-.9.14-2.27-.58-3.19s-1.6-2-1.33-3.12c.41-1.72,2.82-1.78,4.55-1.45.65-1,.63-2.34.95-3.52s1.25-2.42,2.46-2.27,1.84,1.43,3,1.69c1.3.31,2.43-.84,3.45-1.71s2.81-1.4,3.51-.26c.42.68.17,1.63.61,2.3.76,1.16,2.56.44,3.67-.38s2.9-1.57,3.68-.43a4.85,4.85,0,0,1,.44,1.19c.52,1.53,2.17,2.29,3.45,3.26s2.3,2.93,1.22,4.12c-.54.59-1.48.83-1.75,1.58-.33.93.63,1.77,1.39,2.42,1.26,1.07,1.49,4.28-.18,5.16-.7.37-1.73.48-1.9,1.25s.55,1.23,1,1.76a3.32,3.32,0,0,1-1,4.94c-.4.19-.89.35-1,.76a1.61,1.61,0,0,0,.09.94,4.65,4.65,0,0,1,.16,1.78.82.82,0,0,1-.21.56.77.77,0,0,1-.53.15c-2.41.11-3.57-.74-5,1.35a1.73,1.73,0,0,1-.5.54,1.69,1.69,0,0,1-.67.16c-1.65.14-2.74-.89-4.25-1.09-2.1-.26-2.54.82-4.39,1.69C205.57,209.46,204.16,208.62,203.61,206.64Z" style="fill:#ebebeb"></path><path d="M203.85,226.39a6.62,6.62,0,0,1-.2-1.35c-.17-2.81-2.85-2.37-5.13-2.75-1.78-.3,2.94-4.8-.66-6.25a3.16,3.16,0,0,1-1.73-1.21,2,2,0,0,1,.78-2.49,4.86,4.86,0,0,1,2.73-.69c.59-.71.11-1.78-.46-2.51s-1.26-1.56-1.05-2.45c.33-1.36,2.22-1.41,3.59-1.15a9.44,9.44,0,0,0,.74-2.77c.25-.93,1-1.91,1.94-1.79s1.45,1.13,2.34,1.33,1.91-.66,2.71-1.34,2.21-1.1,2.77-.21c.33.54.13,1.28.47,1.81.6.92,2,.35,2.9-.3s2.27-1.24,2.89-.34a3.91,3.91,0,0,1,.34.94c.42,1.2,1.72,1.8,2.73,2.57s1.81,2.3.95,3.24c-.42.47-1.16.65-1.37,1.24-.26.74.49,1.4,1.09,1.91,1,.85,1.17,3.37-.14,4.06-.55.29-1.36.38-1.5,1s.44,1,.8,1.39a2.6,2.6,0,0,1-.8,3.88c-.31.15-.7.28-.82.61a1.24,1.24,0,0,0,.08.73,4,4,0,0,1,.13,1.41.65.65,0,0,1-.18.44.66.66,0,0,1-.41.12c-1.9.08-2.81-.59-4,1.06a1.34,1.34,0,0,1-.4.42,1.14,1.14,0,0,1-.52.13c-1.3.11-2.15-.71-3.35-.86-1.65-.21-2,.64-3.45,1.33C205.39,228.62,204.28,228,203.85,226.39Z" style="fill:#ebebeb"></path><path d="M214.2,219.57a8.53,8.53,0,0,1-.26-1.72c-.21-3.57-3.62-3-6.52-3.49-2.26-.38,3.74-6.1-.83-7.94a4,4,0,0,1-2.2-1.54,2.58,2.58,0,0,1,1-3.16,6.12,6.12,0,0,1,3.47-.87c.74-.91.14-2.27-.58-3.19s-1.61-2-1.33-3.12c.41-1.72,2.81-1.78,4.55-1.45.64-1,.63-2.34.94-3.52s1.25-2.42,2.47-2.27,1.84,1.43,3,1.69c1.3.31,2.43-.84,3.45-1.71s2.81-1.4,3.51-.26c.42.68.17,1.63.61,2.3.75,1.16,2.55.44,3.67-.39s2.89-1.57,3.68-.42a4.83,4.83,0,0,1,.43,1.19c.53,1.53,2.18,2.29,3.46,3.26s2.3,2.92,1.22,4.12c-.54.59-1.48.82-1.75,1.57-.33.94.63,1.78,1.38,2.43,1.27,1.07,1.49,4.28-.17,5.16-.7.37-1.73.48-1.9,1.25s.55,1.23,1,1.76a3.32,3.32,0,0,1-1,4.94c-.4.19-.9.34-1,.76a1.61,1.61,0,0,0,.09.94,4.84,4.84,0,0,1,.16,1.78.79.79,0,0,1-.22.56.86.86,0,0,1-.52.15c-2.41.11-3.57-.74-5,1.35a1.88,1.88,0,0,1-.51.54,1.6,1.6,0,0,1-.66.16c-1.66.14-2.74-.9-4.25-1.09-2.1-.27-2.54.82-4.39,1.69C216.16,222.39,214.75,221.55,214.2,219.57Z" style="fill:#ebebeb"></path><path d="M185.15,189a8.64,8.64,0,0,1-.26-1.72c-.21-3.57-3.62-3-6.52-3.49-2.26-.38,3.73-6.1-.83-7.94a4.07,4.07,0,0,1-2.21-1.54,2.59,2.59,0,0,1,1-3.16,6.1,6.1,0,0,1,3.46-.87c.75-.91.14-2.27-.58-3.19s-1.6-2-1.33-3.12c.42-1.72,2.82-1.78,4.56-1.45.64-1,.63-2.34.94-3.52s1.25-2.42,2.46-2.28,1.85,1.43,3,1.7c1.3.3,2.43-.85,3.45-1.71s2.8-1.4,3.51-.26c.42.68.17,1.63.6,2.3.76,1.16,2.56.44,3.68-.39s2.89-1.57,3.68-.42a4.83,4.83,0,0,1,.43,1.19c.53,1.52,2.18,2.28,3.46,3.26s2.3,2.92,1.21,4.12c-.53.58-1.47.82-1.74,1.57-.33.94.62,1.78,1.38,2.42,1.26,1.08,1.49,4.29-.18,5.17-.7.36-1.72.48-1.89,1.25s.54,1.23,1,1.76a3.3,3.3,0,0,1-1,4.93c-.4.2-.89.35-1,.77a1.58,1.58,0,0,0,.1.93,4.91,4.91,0,0,1,.16,1.79.79.79,0,0,1-.22.56.87.87,0,0,1-.53.15c-2.41.11-3.57-.74-5,1.35a1.69,1.69,0,0,1-.5.53,1.5,1.5,0,0,1-.66.17c-1.66.14-2.74-.9-4.25-1.09-2.1-.27-2.55.81-4.4,1.68C187.1,191.8,185.69,191,185.15,189Z" style="fill:#ebebeb"></path><path d="M161.43,190.19a7.78,7.78,0,0,1-.26-1.72c-.22-3.57-3.62-3-6.52-3.49-2.26-.38,3.73-6.09-.83-7.94a4,4,0,0,1-2.21-1.54,2.59,2.59,0,0,1,1-3.16,6.08,6.08,0,0,1,3.46-.87c.75-.9.14-2.27-.58-3.19s-1.6-2-1.33-3.12c.41-1.72,2.82-1.78,4.56-1.45.64-1,.63-2.34.94-3.52s1.25-2.42,2.46-2.27,1.85,1.43,3,1.69c1.3.31,2.42-.84,3.45-1.71s2.8-1.4,3.51-.26c.42.68.16,1.63.6,2.3.76,1.16,2.56.44,3.68-.38s2.89-1.57,3.68-.43a4.83,4.83,0,0,1,.43,1.19c.53,1.53,2.17,2.29,3.46,3.26s2.3,2.93,1.21,4.12c-.53.59-1.48.83-1.74,1.58-.34.93.62,1.77,1.38,2.42,1.26,1.07,1.49,4.28-.18,5.16-.7.37-1.72.48-1.9,1.25s.55,1.23,1,1.76a3.32,3.32,0,0,1-1,4.94c-.4.19-.89.35-1,.76a1.62,1.62,0,0,0,.1.94,5.09,5.09,0,0,1,.16,1.78.79.79,0,0,1-.22.56.75.75,0,0,1-.53.15c-2.41.11-3.57-.74-5,1.35a1.73,1.73,0,0,1-.5.54,1.64,1.64,0,0,1-.66.16c-1.66.14-2.74-.89-4.25-1.09-2.1-.26-2.55.82-4.4,1.69C163.38,193,162,192.17,161.43,190.19Z" style="fill:#ebebeb"></path><path d="M147,199.9a8.64,8.64,0,0,1-.26-1.72c-.21-3.57-3.62-3-6.52-3.49-2.26-.38,3.73-6.1-.83-7.94a4,4,0,0,1-2.2-1.54,2.58,2.58,0,0,1,1-3.16,6.12,6.12,0,0,1,3.47-.87c.74-.91.13-2.27-.59-3.19s-1.6-2-1.33-3.12c.42-1.72,2.82-1.78,4.56-1.45.64-1,.63-2.34.94-3.52s1.25-2.42,2.47-2.28,1.84,1.43,3,1.7c1.3.31,2.43-.85,3.45-1.71s2.8-1.4,3.51-.26c.42.68.17,1.63.6,2.3.76,1.16,2.56.44,3.68-.39s2.89-1.57,3.68-.42A4.83,4.83,0,0,1,166,170c.53,1.52,2.18,2.28,3.46,3.26s2.3,2.92,1.21,4.12c-.53.58-1.47.82-1.74,1.57-.33.94.62,1.78,1.38,2.42,1.26,1.08,1.49,4.29-.18,5.17-.7.36-1.72.48-1.89,1.25s.54,1.23,1,1.76a3.3,3.3,0,0,1-1,4.93c-.4.2-.89.35-1,.77a1.58,1.58,0,0,0,.1.93,4.91,4.91,0,0,1,.16,1.79.79.79,0,0,1-.22.56.87.87,0,0,1-.53.15c-2.4.11-3.57-.74-5,1.35a1.69,1.69,0,0,1-.5.53,1.5,1.5,0,0,1-.66.17c-1.66.14-2.74-.9-4.25-1.09-2.1-.27-2.55.82-4.4,1.68C149,202.72,147.56,201.88,147,199.9Z" style="fill:#ebebeb"></path><path d="M151.39,212.17s6,8.52,8.1,11.22,12.47,19.53,13.88,30.66c.15,1.19.3,2.21.45,3.11-4.47,29.49-3.77,83.46-3.61,92.7h14.15c.13-10.42,1.34-105.65,1.78-108.56.47-3.08,6.39-14.8,15.53-19.61s17-20.74,17-20.74H215.8s-5.4,9.76-13.09,15.16a29.75,29.75,0,0,1-3.46,2.06A49,49,0,0,0,196.19,201l-1.57,1.45c2.12,8.7,1.85,14.27,1.2,17.47a31.53,31.53,0,0,0-7.95,5.32c-8-10.37-12.46-34.09-12.46-34.09l-2,1.12A121.88,121.88,0,0,0,176,206.76c1.49,6.14,5.89,17.7,7.94,23a53.88,53.88,0,0,0-6,11.3,4.53,4.53,0,0,0-.77-.92c-5.19-4.69-15-26.88-15-26.88-2.36-5.16,1.25-18.7,1.25-18.7h-2.73l-1.22,11.84-6.86-7.48-1.24,1,7.27,9.35,3.74,11.84-9.77-10.8Z" style="fill:#e6e6e6"></path><path d="M394,254.34a7.06,7.06,0,0,0,.2-1.32c.16-2.74,2.77-2.3,5-2.68,1.73-.29-2.87-4.67.64-6.09a3.08,3.08,0,0,0,1.69-1.18,2,2,0,0,0-.77-2.43,4.67,4.67,0,0,0-2.66-.66c-.57-.7-.1-1.74.45-2.45s1.23-1.52,1-2.39c-.32-1.32-2.16-1.37-3.49-1.11a9.44,9.44,0,0,1-.73-2.71c-.24-.9-1-1.86-1.89-1.74s-1.41,1.09-2.27,1.3-1.86-.65-2.65-1.31-2.15-1.08-2.69-.21c-.32.53-.13,1.25-.47,1.77-.58.89-2,.34-2.81-.3s-2.23-1.2-2.83-.32a4,4,0,0,0-.33.91c-.41,1.17-1.67,1.76-2.65,2.51s-1.77,2.24-.94,3.15c.42.45,1.14.64,1.34,1.21.26.72-.48,1.37-1.06,1.86-1,.82-1.14,3.29.14,4,.53.28,1.32.37,1.45,1s-.42.94-.77,1.35a2.54,2.54,0,0,0,.78,3.79c.3.15.68.27.79.59a1.1,1.1,0,0,1-.07.71,3.74,3.74,0,0,0-.12,1.37.59.59,0,0,0,.16.43.66.66,0,0,0,.41.12c1.85.08,2.74-.57,3.87,1a1.32,1.32,0,0,0,.38.4,1.14,1.14,0,0,0,.51.13c1.27.11,2.1-.69,3.26-.84,1.61-.2,2,.63,3.37,1.3C392.51,256.51,393.59,255.86,394,254.34Z" style="fill:#ebebeb"></path><path d="M372.73,252a7.06,7.06,0,0,0,.2-1.32c.16-2.74,2.77-2.3,5-2.68,1.73-.29-2.87-4.67.64-6.09a3.08,3.08,0,0,0,1.69-1.18,2,2,0,0,0-.77-2.43,4.67,4.67,0,0,0-2.66-.66c-.57-.7-.1-1.74.45-2.45s1.23-1.52,1-2.39c-.32-1.32-2.16-1.37-3.49-1.11a9.44,9.44,0,0,1-.73-2.71c-.24-.9-1-1.86-1.89-1.74s-1.41,1.1-2.27,1.3-1.86-.65-2.65-1.31-2.15-1.08-2.69-.21c-.32.53-.13,1.25-.47,1.77-.58.89-2,.34-2.81-.29s-2.23-1.21-2.83-.33a4.12,4.12,0,0,0-.33.91c-.41,1.17-1.67,1.76-2.65,2.51s-1.77,2.24-.94,3.15c.41.45,1.14.64,1.34,1.21s-.48,1.37-1.06,1.86c-1,.82-1.14,3.29.14,4,.53.28,1.32.37,1.45,1s-.42.95-.77,1.35a2.54,2.54,0,0,0,.78,3.79c.3.15.68.27.79.59a1.1,1.1,0,0,1-.07.71,3.75,3.75,0,0,0-.12,1.37.63.63,0,0,0,.16.44.72.72,0,0,0,.41.11c1.85.08,2.74-.57,3.87,1a1.32,1.32,0,0,0,.38.4,1.14,1.14,0,0,0,.51.13c1.27.11,2.1-.69,3.26-.83,1.61-.21,1.95.62,3.37,1.29C371.23,254.21,372.31,253.56,372.73,252Z" style="fill:#ebebeb"></path><path d="M370.68,238.49a7.06,7.06,0,0,0,.2-1.32c.16-2.74,2.77-2.31,5-2.68,1.73-.29-2.87-4.68.64-6.09a3.08,3.08,0,0,0,1.69-1.18,2,2,0,0,0-.77-2.43,4.78,4.78,0,0,0-2.66-.67c-.57-.69-.1-1.73.45-2.44s1.23-1.52,1-2.4c-.32-1.32-2.16-1.36-3.5-1.11a9.6,9.6,0,0,1-.72-2.7c-.24-.91-1-1.86-1.89-1.74s-1.41,1.09-2.27,1.3-1.86-.65-2.65-1.31-2.15-1.08-2.69-.21c-.32.52-.13,1.25-.47,1.77-.58.89-2,.34-2.82-.3s-2.22-1.2-2.82-.32a3.78,3.78,0,0,0-.33.91c-.41,1.17-1.67,1.75-2.66,2.5s-1.76,2.25-.93,3.16c.41.45,1.14.64,1.34,1.21.26.72-.48,1.36-1.06,1.86-1,.82-1.14,3.29.14,4,.53.28,1.32.37,1.45,1s-.42.94-.77,1.35a2.55,2.55,0,0,0,.77,3.79c.31.14.69.27.8.59a1.16,1.16,0,0,1-.07.71A3.74,3.74,0,0,0,355,237a.59.59,0,0,0,.16.43.66.66,0,0,0,.41.12c1.85.08,2.74-.57,3.87,1a1.15,1.15,0,0,0,.38.41,1.24,1.24,0,0,0,.51.13c1.27.1,2.1-.69,3.26-.84,1.61-.2,1.95.63,3.37,1.3C369.17,240.65,370.26,240,370.68,238.49Z" style="fill:#ebebeb"></path><path d="M356.66,245.24a7.06,7.06,0,0,0,.2-1.32c.16-2.74,2.77-2.31,5-2.68,1.73-.29-2.87-4.68.64-6.09a3.08,3.08,0,0,0,1.69-1.18,2,2,0,0,0-.77-2.43,4.66,4.66,0,0,0-2.65-.66c-.58-.7-.11-1.74.44-2.45s1.23-1.52,1-2.4c-.31-1.32-2.16-1.36-3.49-1.11a9.29,9.29,0,0,1-.73-2.7c-.23-.91-1-1.86-1.89-1.74s-1.41,1.09-2.27,1.3-1.86-.65-2.65-1.31-2.15-1.08-2.69-.21c-.32.52-.13,1.25-.46,1.77-.59.89-2,.34-2.82-.3s-2.22-1.2-2.83-.32a3.78,3.78,0,0,0-.33.91c-.4,1.17-1.67,1.75-2.65,2.5s-1.77,2.25-.94,3.16c.42.45,1.14.64,1.34,1.21.26.72-.48,1.36-1.06,1.86-1,.82-1.14,3.29.14,4,.54.28,1.32.37,1.46,1s-.42.94-.78,1.35a2.55,2.55,0,0,0,.78,3.79c.3.14.68.27.8.59a1.17,1.17,0,0,1-.08.71,3.74,3.74,0,0,0-.12,1.37.6.6,0,0,0,.17.43.61.61,0,0,0,.4.12c1.85.08,2.74-.57,3.87,1a1.25,1.25,0,0,0,.38.41,1.33,1.33,0,0,0,.51.13c1.27.1,2.1-.69,3.26-.84,1.61-.2,2,.63,3.37,1.3C355.16,247.4,356.24,246.76,356.66,245.24Z" style="fill:#ebebeb"></path><path d="M342.49,242.12a6.32,6.32,0,0,0,.2-1.32c.16-2.74,2.78-2.3,5-2.68,1.74-.29-2.86-4.67.64-6.09a3,3,0,0,0,1.69-1.18,2,2,0,0,0-.76-2.43,4.69,4.69,0,0,0-2.66-.66c-.57-.7-.11-1.74.44-2.45s1.23-1.52,1-2.39c-.31-1.32-2.16-1.37-3.49-1.11a9.76,9.76,0,0,1-.72-2.71c-.24-.9-1-1.86-1.89-1.74s-1.42,1.1-2.28,1.3-1.86-.65-2.64-1.31-2.16-1.08-2.7-.21c-.32.53-.13,1.25-.46,1.77-.58.89-2,.34-2.82-.29s-2.22-1.21-2.83-.33a4.12,4.12,0,0,0-.33.91c-.4,1.17-1.67,1.76-2.65,2.51s-1.77,2.24-.93,3.15c.41.45,1.13.64,1.34,1.21.25.72-.48,1.37-1.07,1.86-1,.82-1.14,3.29.14,4,.54.28,1.33.37,1.46,1s-.42,1-.78,1.35a2.54,2.54,0,0,0,.78,3.79c.31.15.68.27.8.59a1.17,1.17,0,0,1-.08.71,4,4,0,0,0-.12,1.38.68.68,0,0,0,.17.43.69.69,0,0,0,.4.11c1.85.08,2.74-.57,3.87,1a1.24,1.24,0,0,0,.39.4,1.09,1.09,0,0,0,.5.13c1.28.11,2.11-.69,3.27-.83,1.61-.21,1.95.62,3.37,1.29C341,244.29,342.07,243.64,342.49,242.12Z" style="fill:#ebebeb"></path><path d="M342.31,257.27a5.09,5.09,0,0,0,.15-1c.13-2.16,2.19-1.82,3.94-2.11,1.37-.23-2.25-3.68.5-4.8a2.39,2.39,0,0,0,1.33-.93,1.56,1.56,0,0,0-.6-1.91,3.66,3.66,0,0,0-2.09-.52c-.45-.55-.08-1.37.35-1.93s1-1.2.8-1.89c-.24-1-1.7-1.07-2.75-.87a7.53,7.53,0,0,1-.57-2.13c-.18-.71-.75-1.46-1.49-1.37s-1.11.86-1.79,1-1.46-.51-2.08-1-1.7-.85-2.12-.16c-.25.41-.1,1-.37,1.39-.45.7-1.54.27-2.22-.23s-1.74-1-2.22-.26a2.94,2.94,0,0,0-.26.72c-.32.92-1.32,1.38-2.09,2s-1.39,1.77-.73,2.49c.32.35.89.5,1.05.95s-.38,1.07-.84,1.46c-.76.65-.9,2.59.11,3.12.42.22,1,.29,1.15.76s-.33.74-.61,1.06a2,2,0,0,0,.61,3c.24.12.54.21.63.47a1,1,0,0,1-.06.56,3,3,0,0,0-.1,1.08.52.52,0,0,0,.14.34.54.54,0,0,0,.31.09c1.46.06,2.16-.45,3.05.81a1,1,0,0,0,.3.33,1.12,1.12,0,0,0,.4.1c1,.08,1.66-.55,2.57-.66,1.27-.16,1.54.49,2.66,1C341.12,259,342,258.47,342.31,257.27Z" style="fill:#ebebeb"></path><path d="M334.37,252a7.06,7.06,0,0,0,.2-1.32c.16-2.74,2.77-2.3,5-2.68,1.73-.29-2.87-4.67.64-6.09a3.08,3.08,0,0,0,1.69-1.18,2,2,0,0,0-.77-2.43,4.67,4.67,0,0,0-2.66-.66c-.57-.7-.1-1.74.45-2.45s1.23-1.52,1-2.39c-.32-1.32-2.16-1.37-3.49-1.11a9.44,9.44,0,0,1-.73-2.71c-.24-.9-1-1.86-1.89-1.74s-1.41,1.1-2.27,1.3-1.86-.65-2.65-1.31-2.15-1.08-2.69-.21c-.32.53-.13,1.25-.47,1.77-.58.89-2,.34-2.81-.29s-2.23-1.21-2.83-.33a4.12,4.12,0,0,0-.33.91c-.41,1.17-1.67,1.76-2.65,2.51s-1.77,2.24-.94,3.15c.41.45,1.14.64,1.34,1.21s-.48,1.37-1.06,1.86c-1,.82-1.14,3.29.14,4,.53.28,1.32.37,1.45,1s-.42.95-.77,1.35a2.54,2.54,0,0,0,.78,3.79c.3.15.68.27.79.59a1.1,1.1,0,0,1-.07.71,3.75,3.75,0,0,0-.12,1.37.63.63,0,0,0,.16.44.72.72,0,0,0,.41.11c1.85.08,2.74-.57,3.87,1a1.32,1.32,0,0,0,.38.4,1.14,1.14,0,0,0,.51.13c1.27.11,2.1-.69,3.26-.83,1.61-.21,1.95.62,3.37,1.29C332.87,254.21,334,253.56,334.37,252Z" style="fill:#ebebeb"></path><path d="M356.66,228.57a7.06,7.06,0,0,0,.2-1.32c.16-2.74,2.77-2.31,5-2.68,1.73-.29-2.87-4.68.64-6.09a3.08,3.08,0,0,0,1.69-1.18,2,2,0,0,0-.77-2.43,4.75,4.75,0,0,0-2.65-.67c-.58-.69-.11-1.73.44-2.44s1.23-1.52,1-2.4c-.31-1.32-2.16-1.36-3.49-1.11a9.29,9.29,0,0,1-.73-2.7c-.23-.91-1-1.86-1.89-1.74s-1.41,1.09-2.27,1.3-1.86-.65-2.65-1.31-2.15-1.08-2.69-.21c-.32.52-.13,1.25-.46,1.77-.59.89-2,.34-2.82-.3s-2.22-1.2-2.83-.32a3.78,3.78,0,0,0-.33.91c-.4,1.17-1.67,1.75-2.65,2.5s-1.77,2.25-.94,3.16c.42.45,1.14.64,1.34,1.21s-.48,1.36-1.06,1.86c-1,.82-1.14,3.29.14,4,.54.28,1.32.37,1.46,1s-.42.94-.78,1.35a2.55,2.55,0,0,0,.78,3.79c.3.14.68.27.8.59a1.17,1.17,0,0,1-.08.71,3.74,3.74,0,0,0-.12,1.37.6.6,0,0,0,.17.43.61.61,0,0,0,.4.12c1.85.08,2.74-.57,3.87,1a1.25,1.25,0,0,0,.38.41,1.33,1.33,0,0,0,.51.13c1.27.1,2.1-.69,3.26-.84,1.61-.2,2,.63,3.37,1.3C355.16,230.73,356.24,230.09,356.66,228.57Z" style="fill:#ebebeb"></path><path d="M374.86,229.5a7.06,7.06,0,0,0,.2-1.32c.16-2.74,2.77-2.31,5-2.68,1.73-.29-2.87-4.68.64-6.09a3,3,0,0,0,1.69-1.18,2,2,0,0,0-.77-2.43,4.66,4.66,0,0,0-2.65-.66c-.58-.7-.11-1.74.44-2.45s1.23-1.52,1-2.39c-.31-1.32-2.16-1.37-3.49-1.12a9.29,9.29,0,0,1-.73-2.7c-.23-.9-1-1.86-1.89-1.74s-1.41,1.09-2.27,1.3-1.86-.65-2.65-1.31-2.15-1.08-2.69-.21c-.32.53-.13,1.25-.46,1.77-.59.89-2,.34-2.82-.3s-2.22-1.2-2.83-.32a4,4,0,0,0-.33.91c-.4,1.17-1.67,1.75-2.65,2.5s-1.77,2.25-.93,3.16c.41.45,1.13.64,1.33,1.21.26.72-.48,1.37-1.06,1.86-1,.82-1.14,3.29.14,4,.54.28,1.32.37,1.46,1s-.42.94-.78,1.35a2.55,2.55,0,0,0,.78,3.79c.3.15.68.27.8.59a1.17,1.17,0,0,1-.08.71,4,4,0,0,0-.12,1.37.6.6,0,0,0,.17.43.61.61,0,0,0,.4.12c1.85.08,2.74-.57,3.87,1a1.25,1.25,0,0,0,.38.41,1.17,1.17,0,0,0,.51.13c1.27.1,2.1-.69,3.26-.84,1.61-.2,2,.63,3.37,1.3C373.36,231.67,374.44,231,374.86,229.5Z" style="fill:#ebebeb"></path><path d="M385.91,237a6.32,6.32,0,0,0,.2-1.32c.17-2.74,2.78-2.31,5-2.68,1.74-.29-2.86-4.68.64-6.09a3.1,3.1,0,0,0,1.69-1.18,2,2,0,0,0-.76-2.43,4.7,4.7,0,0,0-2.66-.67c-.57-.69-.11-1.74.45-2.45s1.23-1.51,1-2.39c-.32-1.32-2.16-1.36-3.5-1.11a9.69,9.69,0,0,1-.72-2.7c-.24-.91-1-1.86-1.89-1.74s-1.41,1.09-2.27,1.29-1.87-.64-2.65-1.31-2.15-1.07-2.69-.2c-.33.52-.13,1.25-.47,1.77-.58.89-2,.33-2.82-.3s-2.22-1.2-2.82-.33a3.26,3.26,0,0,0-.33.92c-.41,1.17-1.67,1.75-2.66,2.5s-1.76,2.24-.93,3.16c.41.45,1.13.63,1.34,1.21s-.48,1.36-1.06,1.86c-1,.82-1.15,3.28.13,4,.54.28,1.33.37,1.46,1s-.42.94-.78,1.35a2.55,2.55,0,0,0,.78,3.79c.31.14.69.26.8.59a1.24,1.24,0,0,1-.07.71,3.74,3.74,0,0,0-.13,1.37.51.51,0,0,0,.58.55c1.84.08,2.74-.58,3.86,1a1.28,1.28,0,0,0,.39.41,1.24,1.24,0,0,0,.51.13c1.27.1,2.1-.69,3.26-.84,1.61-.2,1.95.63,3.37,1.29C384.41,239.11,385.49,238.47,385.91,237Z" style="fill:#ebebeb"></path><path d="M382.56,246.36s-4.62,6.54-6.22,8.61-9.56,15-10.65,23.53c-.11.91-.23,1.69-.34,2.38,3.43,22.63,2.89,64,2.77,71.13H357.26c-.1-8-1-81.07-1.36-83.3s-4.9-11.35-11.92-15-13.08-15.92-13.08-15.92h2.24s4.14,7.49,10,11.64a23.18,23.18,0,0,0,2.66,1.57,37.77,37.77,0,0,1,2.34-13.21l1.21,1.12c-1.63,6.67-1.42,10.95-.92,13.4a24.32,24.32,0,0,1,6.1,4.08c6.12-8,9.56-26.15,9.56-26.15l1.56.86a93.27,93.27,0,0,1-2,11.16c-1.15,4.71-4.52,13.57-6.09,17.6a41.69,41.69,0,0,1,4.62,8.68,3.43,3.43,0,0,1,.59-.71c4-3.61,11.48-20.63,11.48-20.63,1.81-4-1-14.35-1-14.35h2.1l.93,9.09,5.27-5.74.95.79L377,244.13l-2.87,9.09,7.5-8.29Z" style="fill:#e6e6e6"></path><rect x="106.63" y="145.59" width="6.91" height="222.66" transform="translate(220.18 513.84) rotate(180)" style="fill:#e6e6e6"></rect><polygon points="118 173.44 102.17 173.44 99.17 142.15 121 142.15 118 173.44" style="fill:#ebebeb"></polygon><polygon points="120.28 139.28 111.75 130.04 110.09 128.24 108.43 130.04 99.89 139.28 95.07 139.28 97.95 145.1 108.43 145.1 111.75 145.1 122.23 145.1 125.1 139.28 120.28 139.28" style="fill:#e0e0e0"></polygon><rect x="100.81" y="171.45" width="18.55" height="3.56" style="fill:#e0e0e0"></rect><path d="M50.92,368.35v12.94H415.49V368.35a3.86,3.86,0,0,0-3.82-4.07H54.74A3.86,3.86,0,0,0,50.92,368.35Z" style="fill:#e0e0e0"></path><rect x="372.04" y="364.28" width="22.67" height="17" style="fill:#f5f5f5"></rect><rect x="329.54" y="364.28" width="21.72" height="17" style="fill:#f5f5f5"></rect><rect x="286.1" y="364.28" width="22.67" height="17" style="fill:#f5f5f5"></rect><rect x="243.59" y="364.28" width="21.72" height="17" style="fill:#f5f5f5"></rect><rect x="201.09" y="364.28" width="21.72" height="17" style="fill:#f5f5f5"></rect><rect x="157.65" y="364.28" width="22.67" height="17" style="fill:#f5f5f5"></rect><rect x="115.15" y="364.28" width="21.72" height="17" style="fill:#f5f5f5"></rect><rect x="71.7" y="364.28" width="22.67" height="17" style="fill:#f5f5f5"></rect></g><g id="freepik--Shadow--inject-68"><ellipse id="freepik--path--inject-68" cx="250" cy="416.24" rx="193.89" ry="11.32" style="fill:#f5f5f5"></ellipse></g><g id="freepik--Shelf--inject-68"><rect x="299.29" y="284.1" width="101.3" height="133.3" style="fill:#F91944"></rect><rect x="299.29" y="284.1" width="101.3" height="133.3" style="fill:#fff;opacity:0.7000000000000001"></rect><rect x="299.29" y="284.1" width="12.43" height="133.3" style="opacity:0.1"></rect><rect x="314.65" y="287.27" width="83.82" height="19.51" style="opacity:0.1"></rect><rect x="314.24" y="310.01" width="83.82" height="19.51" style="opacity:0.1"></rect><rect x="313.83" y="332.74" width="83.82" height="19.51" style="opacity:0.1"></rect><rect x="313.42" y="355.48" width="83.82" height="19.51" style="opacity:0.1"></rect><rect x="313.01" y="378.21" width="83.82" height="19.51" style="opacity:0.1"></rect></g><g id="freepik--Menu--inject-68"><rect x="266.88" y="305.2" width="2.44" height="112.22" style="fill:#F91944"></rect><rect x="256" y="415.48" width="24.2" height="1.91" style="fill:#F91944"></rect><rect x="244.83" y="263.59" width="46.56" height="61.04" style="fill:#F91944"></rect><rect x="244.83" y="263.59" width="46.56" height="61.04" style="fill:#fff;opacity:0.5"></rect><path d="M260.15,272.36v-4.12l-2,3.41h-.51l-2-3.35v4.06h-1.1v-6.21h1l2.46,4.12,2.42-4.12h1v6.21Z" style="fill:#F91944"></path><path d="M267.57,271.39v1h-4.65v-6.21h4.53v1h-3.38v1.61h3v.95h-3v1.71Z" style="fill:#F91944"></path><path d="M274.37,266.15v6.21h-.94l-3.43-4.2v4.2h-1.14v-6.21h.95l3.42,4.2v-4.2Z" style="fill:#F91944"></path><path d="M276,269.65v-3.5h1.15v3.46c0,1.28.58,1.83,1.58,1.83s1.57-.55,1.57-1.83v-3.46h1.14v3.5a2.72,2.72,0,1,1-5.44,0Z" style="fill:#F91944"></path><rect x="248.49" y="276.35" width="17.68" height="11.48" style="fill:#fff;opacity:0.5"></rect><polygon points="258.86 278.08 257.25 275.55 260 276.72 262.19 273.93 262.86 276.32 267.84 275.54 266.02 278.15 269.04 279.78 266.44 280.52 266.73 283.17 264.5 282.1 262.09 284.1 261.47 281.92 258.76 282.69 259.14 281.25 256.76 279.98 258.21 278.96 256.92 278 258.86 278.08" style="fill:#F91944"></polygon><rect x="269.97" y="276.25" width="17.68" height="11.48" style="fill:#fff;opacity:0.5"></rect><polygon points="280.2 284.76 278.6 282.24 281.35 283.41 283.53 280.62 284.21 283.01 289.18 282.23 287.37 284.84 290.38 286.47 287.78 287.21 288.07 289.86 285.84 288.79 283.43 290.79 282.82 288.61 280.1 289.38 280.49 287.94 278.11 286.67 279.56 285.65 278.26 284.69 280.2 284.76" style="fill:#F91944"></polygon><rect x="248.38" y="292.85" width="17.68" height="11.48" style="fill:#fff;opacity:0.5"></rect><polygon points="258.74 294.58 257.14 292.05 259.89 293.22 262.07 290.43 262.75 292.82 267.73 292.04 265.91 294.65 268.93 296.29 266.32 297.02 266.62 299.67 264.38 298.6 261.97 300.6 261.36 298.42 258.64 299.19 259.03 297.75 256.65 296.48 258.1 295.46 256.81 294.5 258.74 294.58" style="fill:#F91944"></polygon><rect x="269.85" y="292.75" width="17.68" height="11.48" style="fill:#fff;opacity:0.5"></rect><polygon points="280.09 301.27 278.48 298.74 281.23 299.91 283.42 297.12 284.09 299.51 289.07 298.73 287.25 301.34 290.27 302.97 287.67 303.71 287.96 306.36 285.73 305.29 283.32 307.29 282.7 305.11 279.99 305.88 280.37 304.44 277.99 303.17 279.45 302.15 278.15 301.19 280.09 301.27" style="fill:#F91944"></polygon><rect x="248.27" y="309.35" width="17.68" height="11.48" style="fill:#fff;opacity:0.5"></rect><polygon points="258.63 311.08 257.02 308.55 259.77 309.73 261.96 306.93 262.63 309.32 267.61 308.54 265.8 311.15 268.81 312.79 266.21 313.52 266.5 316.18 264.27 315.1 261.86 317.1 261.24 314.92 258.53 315.69 258.92 314.25 256.53 312.98 257.99 311.96 256.69 311 258.63 311.08" style="fill:#F91944"></polygon><rect x="269.74" y="309.25" width="17.68" height="11.48" style="fill:#fff;opacity:0.5"></rect><polygon points="279.97 317.77 278.37 315.24 281.12 316.41 283.3 313.62 283.98 316.01 288.95 315.23 287.14 317.84 290.15 319.48 287.56 320.21 287.85 322.86 285.61 321.79 283.2 323.79 282.59 321.61 279.87 322.38 280.26 320.94 277.88 319.67 279.33 318.65 278.04 317.69 279.97 317.77" style="fill:#F91944"></polygon></g><g id="freepik--Character--inject-68"><path d="M349.54,273.35a5.53,5.53,0,0,1,5.64,0c3.15,1.73,3,6.38,1.9,12.62s1.21,7.61,1.21,7.61a6.26,6.26,0,0,1-3.71.66,15.8,15.8,0,0,0-.67-2.2c0,.41.39,2.22.39,2.22l-.79-2.22-.12,2.22a7.44,7.44,0,0,1-1.67-.56l.06-4.1-.34,3.14s-.73-.7-.85-3.8,2.5-7.18,1.91-9.87-2.16-2.33-2.16-2.33Z" style="fill:#263238"></path><path d="M332.61,304.22a30.71,30.71,0,0,1-3,6.44,16.76,16.76,0,0,1-2.33,3A10.6,10.6,0,0,1,325.6,315a6.73,6.73,0,0,1-2.29.93,9,9,0,0,1-4.22-.34,18.21,18.21,0,0,1-3.37-1.41,29.7,29.7,0,0,1-5.66-4l1.45-2c.91.47,1.87,1,2.83,1.41a31,31,0,0,0,2.89,1.2,18,18,0,0,0,2.82.81,5.28,5.28,0,0,0,2.3,0,2,2,0,0,0,.71-.38,6,6,0,0,0,.8-.8,16.3,16.3,0,0,0,1.56-2.31,42.8,42.8,0,0,0,2.5-5.51Z" style="fill:#dc897c"></path><path d="M311.48,308.45l-2.77-2.78-1.5,4.34a5.24,5.24,0,0,0,4.58.08Z" style="fill:#e4897b"></path><polygon points="304.86 305.24 304.35 308.67 307.21 310.01 308.71 305.67 304.86 305.24" style="fill:#e4897b"></polygon><polygon points="297.46 300.95 313.29 299.22 313.29 299.82 297.46 301.25 297.46 300.95" style="fill:#263238"></polygon><polygon points="296.84 301.91 312.33 298.26 312.41 298.86 296.87 302.21 296.84 301.91" style="fill:#263238"></polygon><polygon points="308.83 309.72 301.3 309.72 299.53 300.24 310.6 300.24 308.83 309.72" style="fill:#F91944"></polygon><polygon points="308.83 309.72 301.3 309.72 299.53 300.24 310.6 300.24 308.83 309.72" style="opacity:0.30000000000000004"></polygon><polygon points="308.83 309.72 305.38 309.72 305.41 300.24 310.6 300.24 308.83 309.72" style="opacity:0.30000000000000004"></polygon><path d="M304.23,304.49c.1.94-.37,1.73-1.06,1.77s-1.34-.69-1.45-1.63.37-1.73,1.06-1.77S304.12,303.55,304.23,304.49Z" style="fill:#fff;opacity:0.7000000000000001"></path><path d="M330.44,298.16c-4.22,3.23-6.28,8.79-6.28,8.79l7.29,3.65s4.8-7.44,3.86-9.68S332.81,296.34,330.44,298.16Z" style="fill:#263238"></path><path d="M330.44,298.16c-4.22,3.23-6.28,8.79-6.28,8.79l7.29,3.65s4.8-7.44,3.86-9.68S332.81,296.34,330.44,298.16Z" style="fill:#fff;opacity:0.30000000000000004"></path><path d="M331.71,297.53s-1.91.84,4.5,26.17L354,322.17c-.92-7.22-1.32-11.68.86-26.83a52.32,52.32,0,0,0-7.64-.34,57.27,57.27,0,0,0-8.08.69A76.09,76.09,0,0,0,331.71,297.53Z" style="fill:#263238"></path><path d="M331.71,297.53s-1.91.84,4.5,26.17L354,322.17c-.92-7.22-1.32-11.68.86-26.83a52.32,52.32,0,0,0-7.64-.34,57.27,57.27,0,0,0-8.08.69A76.09,76.09,0,0,0,331.71,297.53Z" style="fill:#fff;opacity:0.30000000000000004"></path><polygon points="349.99 413.04 345.65 413.45 343.56 403.35 347.9 402.93 349.99 413.04" style="fill:#e4897b"></polygon><polygon points="382.25 398.1 379.06 401.09 372.18 393.53 375.37 390.53 382.25 398.1" style="fill:#e4897b"></polygon><path d="M377.59,399.66l2.4-4.32a.33.33,0,0,1,.43-.16l3.69,1.4a.71.71,0,0,1,.34,1c-.86,1.49-1.35,2.16-2.41,4.06-.65,1.17-1.91,3.85-2.8,5.46s-2.54.82-2.31.06a12.75,12.75,0,0,0,.54-6.73A1.13,1.13,0,0,1,377.59,399.66Z" style="fill:#263238"></path><path d="M345.3,412.14h5.21a.43.43,0,0,1,.41.32l1.14,4.12a.66.66,0,0,1-.64.83c-1.84,0-2.71,0-5,0h-7c-1.91,0-2.3-1.93-1.52-2.1,3.54-.79,5.58-1.86,6.67-2.89A1,1,0,0,1,345.3,412.14Z" style="fill:#263238"></path><polygon points="343.56 403.35 344.64 408.56 349.07 408.56 347.91 402.94 343.56 403.35" style="opacity:0.2"></polygon><polygon points="375.37 390.53 372.18 393.53 375.73 397.43 378.92 394.43 375.37 390.53" style="opacity:0.2"></polygon><path d="M347.21,294.87s1,0,2.2,0c.71,1.1-1.61,5.94-5.46,9.1a9.76,9.76,0,0,0-3.09-4.48Z" style="fill:#fff"></path><path d="M339.13,295.63s-.45.06-1.52.31c-.72,1.1-1.93,5.82.18,8.22a9.42,9.42,0,0,1,3.07-4.65Z" style="fill:#fff"></path><path d="M345.62,286c-.28,2.64-.38,7.45,1.59,9a30.1,30.1,0,0,1-6.35,4.51c-3.1-2.14-1.73-3.82-1.73-3.82,2.84-.94,2.58-3.08,1.9-5.06Z" style="fill:#e4897b"></path><path d="M343.75,287.87,341,290.63a8.15,8.15,0,0,1,.37,1.41c1.1-.25,2.68-1.39,2.7-2.56A4.6,4.6,0,0,0,343.75,287.87Z" style="opacity:0.2"></path><path d="M341.42,277s-3,4.12-3.45,6c-2,1.18-2.42-4.62-1.35-8.19C339.93,276.88,341.42,277,341.42,277Z" style="fill:#263238"></path><path d="M348,281.84c-1.11,4.22-1.48,6-4.07,7.8-3.9,2.66-8.84.39-9-4.08-.16-4,1.67-10.25,6.18-11.12A6,6,0,0,1,348,281.84Z" style="fill:#e4897b"></path><path d="M350.24,280.16s-2.12,3.43-2.41,4.93c-1.53,1.05-2.18-3.54-1.53-6.44C347,276.09,350.24,280.16,350.24,280.16Z" style="fill:#263238"></path><path d="M352.15,274.61c.59,1.48.17,3-.94,3.49s-2.5-.38-3.1-1.86-.17-3,.94-3.49S351.55,273.14,352.15,274.61Z" style="fill:#F91944"></path><path d="M339,272.89c1.25-1.73,5.81-2.45,9.77.15,3.56,2.34,3.33,7.77.5,7.48s-5.64-3.61-5.64-3.61Z" style="fill:#263238"></path><path d="M348.29,285.65a3.18,3.18,0,0,1-1.87,1.56c-1.07.32-1.63-.63-1.35-1.65s1.11-2.2,2.2-2.08A1.43,1.43,0,0,1,348.29,285.65Z" style="fill:#e4897b"></path><path d="M336.21,323.7s-6,26.62-2,45.39c2.7,12.57,8.32,37.29,8.32,37.29l7.59-.19s-3.27-26-4.79-36.46c-2.6-17.92,3.91-47.15,3.91-47.15Z" style="fill:#263238"></path><path d="M343.14,329.08l3.8,6a181.11,181.11,0,0,0-2.17,21.43C339.43,346.94,342,334.14,343.14,329.08Z" style="opacity:0.2"></path><polygon points="342.23 407.44 351.6 407.2 351.06 404.32 341.5 404.78 342.23 407.44" style="fill:#263238"></polygon><path d="M340.09,323.42s3.53,28.23,11.19,43.64c6.18,12.45,22.67,30.17,22.67,30.17l4.22-4.34S367,373.63,362.43,365.36c-11.26-20.28-2.06-35.75-8.44-43.19Z" style="fill:#263238"></path><polygon points="373.52 397.81 378.96 392.51 377.16 390.05 371.39 395.81 373.52 397.81" style="fill:#263238"></polygon><path d="M354.17,321.1l.94,1.52c.07.12-.07.26-.27.28l-18.65,1.61c-.16,0-.3-.05-.32-.15l-.3-1.58c0-.11.11-.22.29-.23l18-1.56A.32.32,0,0,1,354.17,321.1Z"></path><path d="M351.92,323.32l.48,0c.1,0,.17-.06.16-.12l-.41-2.05c0-.06-.1-.1-.19-.1l-.49.05c-.09,0-.16.06-.15.12l.41,2.05C351.74,323.29,351.83,323.33,351.92,323.32Z" style="fill:#263238"></path><path d="M337.56,324.57l.48-.05c.1,0,.16-.06.15-.12l-.4-2c0-.06-.1-.1-.2-.09l-.48,0c-.1,0-.17.06-.15.12l.4,2.05C337.37,324.53,337.46,324.57,337.56,324.57Z" style="fill:#263238"></path><path d="M344.74,323.94l.48,0c.1,0,.17-.06.15-.12l-.4-2c0-.06-.1-.1-.2-.09l-.48,0c-.09,0-.16.06-.15.12l.4,2.05A.18.18,0,0,0,344.74,323.94Z" style="fill:#263238"></path><path d="M340.8,281.7c-.07.35-.31.59-.53.55s-.36-.37-.29-.71.31-.6.53-.55S340.87,281.35,340.8,281.7Z" style="fill:#263238"></path><path d="M336.87,280.92c-.07.35-.31.6-.54.55s-.35-.36-.28-.71.3-.59.53-.55S336.94,280.58,336.87,280.92Z" style="fill:#263238"></path><path d="M336.68,280.25l-.79-.4S336.19,280.58,336.68,280.25Z" style="fill:#263238"></path><path d="M338.22,281.79a9.38,9.38,0,0,1-1.68,2,1.52,1.52,0,0,0,1.2.47Z" style="fill:#de5753"></path><path d="M339.35,285.9a2.93,2.93,0,0,0,2-.75.09.09,0,0,0,0-.12.09.09,0,0,0-.13,0,2.81,2.81,0,0,1-2.47.64.08.08,0,0,0-.1.07.09.09,0,0,0,.07.1A3.74,3.74,0,0,0,339.35,285.9Z" style="fill:#263238"></path><path d="M343.16,280.35l.09,0a.17.17,0,0,0,.06-.23,2,2,0,0,0-1.57-1,.18.18,0,0,0-.18.17.19.19,0,0,0,.17.18,1.66,1.66,0,0,1,1.28.85A.19.19,0,0,0,343.16,280.35Z" style="fill:#263238"></path><path d="M349.16,295c0,1,1,3-1,9.74l-12.71.52s1.06-7.76,2.22-8.92c0,0-1.69.8-2.8,8.92a22.35,22.35,0,0,0,.58,16.93l-4,28.43,22.05-.81,1.35-28.16-.53-2.28S349.7,312.29,349,305a60.3,60.3,0,0,0,1.12-6.72C350.33,295.52,349.16,295,349.16,295Z" style="fill:#F91944"></path><path d="M335.78,279a.13.13,0,0,0,.08,0,1.73,1.73,0,0,1,1.54-.1.17.17,0,0,0,.23-.07.18.18,0,0,0-.07-.23,2,2,0,0,0-1.87.1.18.18,0,0,0-.06.24A.19.19,0,0,0,335.78,279Z" style="fill:#263238"></path><path d="M376.75,402l.17,0c.52-.18.86-1.14,1-1.7a.09.09,0,0,0-.12-.1c-.16.08-1.56.83-1.6,1.38a.31.31,0,0,0,.15.3A.59.59,0,0,0,376.75,402Zm1-1.58c-.24.77-.55,1.28-.85,1.38a.39.39,0,0,1-.39-.08.17.17,0,0,1-.08-.16C376.42,401.2,377.23,400.67,377.71,400.4Z" style="fill:#F91944"></path><path d="M376.53,400.62a3.18,3.18,0,0,0,1.37-.32.09.09,0,0,0,0-.08.08.08,0,0,0,0-.07s-1.15-.63-1.75-.42a.52.52,0,0,0-.32.31.33.33,0,0,0,.08.42A1,1,0,0,0,376.53,400.62Zm1.14-.4c-.48.21-1.39.33-1.65.11a.18.18,0,0,1,0-.23.35.35,0,0,1,.22-.21A2.52,2.52,0,0,1,377.67,400.22Z" style="fill:#F91944"></path><path d="M343,413a6.64,6.64,0,0,0,1.43-.18.07.07,0,0,0,.06-.07.08.08,0,0,0-.05-.09c-.21-.1-2.1-1-2.58-.65a.28.28,0,0,0-.12.27.62.62,0,0,0,.26.48A1.67,1.67,0,0,0,343,413Zm1.13-.29a3.31,3.31,0,0,1-2-.08.46.46,0,0,1-.19-.36.12.12,0,0,1,.05-.12C342.2,412,343.32,412.34,344.11,412.69Z" style="fill:#F91944"></path><path d="M344.39,412.81l.05,0a.09.09,0,0,0,0-.09c0-.08-.45-1.95-1.47-1.83-.26,0-.33.16-.34.26-.07.48,1.12,1.44,1.69,1.67Zm-1.3-1.77c.66,0,1,1.09,1.16,1.52-.61-.32-1.46-1.1-1.42-1.4,0,0,0-.09.19-.11Z" style="fill:#F91944"></path><path d="M340.61,281l-.79-.41S340.12,281.36,340.61,281Z" style="fill:#263238"></path><polygon points="325.1 306.19 340.93 304.46 340.93 305.06 325.1 306.49 325.1 306.19" style="fill:#263238"></polygon><polygon points="324.47 307.15 339.97 303.5 340.05 304.09 324.51 307.44 324.47 307.15" style="fill:#263238"></polygon><polygon points="336.46 314.96 328.94 314.96 327.17 305.47 338.24 305.47 336.46 314.96" style="fill:#F91944"></polygon><polygon points="336.46 314.96 328.94 314.96 327.17 305.47 338.24 305.47 336.46 314.96" style="opacity:0.30000000000000004"></polygon><polygon points="336.46 314.96 333.02 314.96 333.05 305.47 338.24 305.47 336.46 314.96" style="opacity:0.30000000000000004"></polygon><path d="M331.86,309.73c.11.93-.36,1.73-1.05,1.76s-1.34-.69-1.45-1.62.36-1.73,1.05-1.77S331.75,308.79,331.86,309.73Z" style="fill:#fff;opacity:0.7000000000000001"></path><path d="M356.77,300.82a58.48,58.48,0,0,1-.63,7.21,27.74,27.74,0,0,1-.77,3.7,11.81,11.81,0,0,1-.78,2.07,4.67,4.67,0,0,1-1,1.4,3.33,3.33,0,0,1-.85.55,5.11,5.11,0,0,1-.7.28,7.16,7.16,0,0,1-2.37.3,15.85,15.85,0,0,1-2-.17,27.55,27.55,0,0,1-3.66-.84,43.36,43.36,0,0,1-6.73-2.65l.86-2.29c2.21.52,4.48,1,6.69,1.37a29.08,29.08,0,0,0,3.25.36,7,7,0,0,0,2.56-.25.64.64,0,0,1,.11-.06s.07-.07-.12.07-.11.12-.07,0a6.46,6.46,0,0,0,.34-1.24c.21-1,.33-2.09.47-3.2.23-2.21.38-4.52.52-6.75Z" style="fill:#dc897c"></path><path d="M339.36,310.87,335.89,309l-.16,4.59a6.72,6.72,0,0,0,3.89-1Z" style="fill:#e4897b"></path><polygon points="332.94 309.62 333.46 313.05 335.74 313.63 335.89 309.04 332.94 309.62" style="fill:#e4897b"></polygon><path d="M354.85,295.34c5.56,1.22,2.71,12.67,2.71,12.67l-7.12-.54s-.23-5.29,0-8.13C350.65,296.93,352.09,294.73,354.85,295.34Z" style="fill:#263238"></path><path d="M354.85,295.34c5.56,1.22,2.71,12.67,2.71,12.67l-7.12-.54s-.23-5.29,0-8.13C350.65,296.93,352.09,294.73,354.85,295.34Z" style="fill:#fff;opacity:0.30000000000000004"></path><path d="M340.39,271.88a6.12,6.12,0,0,0-6,5.16l3.26.42a7.19,7.19,0,0,1,1.94-1.73,9,9,0,0,0-.89,2.08,20,20,0,0,1,1.26-1.88,3.49,3.49,0,0,0,0,1.88l3.35.54a2.34,2.34,0,0,1-.32-1.67,6.05,6.05,0,0,0,3.28,2C348,278.83,343.87,272.36,340.39,271.88Z" style="fill:#263238"></path></g><g id="freepik--drive-thru--inject-68"><rect x="239.86" y="182.15" width="5.11" height="15.31" style="fill:#263238"></rect><rect x="239.86" y="182.15" width="3.47" height="15.31" style="fill:#fff;opacity:0.2"></rect><rect x="378.72" y="182.15" width="5.11" height="15.31" style="fill:#263238"></rect><rect x="378.72" y="182.15" width="3.47" height="15.31" style="fill:#fff;opacity:0.2"></rect><rect x="224.22" y="145.13" width="182.34" height="40.76" rx="10.22" style="fill:#F91944"></rect><rect x="224.22" y="145.13" width="182.34" height="40.76" rx="10.22" style="fill:#fff;opacity:0.5"></rect><rect x="224.22" y="145.13" width="176.38" height="40.76" rx="10.22" style="fill:#fff;opacity:0.4"></rect><polygon points="331.49 121.14 329.68 122.26 352.82 157.32 353.44 156.91 331.49 121.14" style="fill:#263238"></polygon><polygon points="323.88 124.22 322.45 125.79 354.35 153.14 354.83 152.57 323.88 124.22" style="fill:#263238"></polygon><path d="M338.64,145.52s-.29-8.85,7.63-10,9.78,3,9.78,3,5.22-5.73,12-1.85,2.75,15.16,2.75,15.16Z" style="fill:#F91944"></path><path d="M338.64,145.52s-.29-8.85,7.63-10,9.78,3,9.78,3,5.22-5.73,12-1.85,2.75,15.16,2.75,15.16Z" style="fill:#fff;opacity:0.7000000000000001"></path><g style="opacity:0.2"><path d="M344.61,143.35h-.08a.21.21,0,0,1-.11-.28,8.25,8.25,0,0,1,7.21-4.6,10.1,10.1,0,0,1,8,3.11.22.22,0,0,1,0,.3.2.2,0,0,1-.3,0,9.81,9.81,0,0,0-7.64-3,7.81,7.81,0,0,0-6.83,4.34A.2.2,0,0,1,344.61,143.35Z"></path><path d="M342.17,142.51a.21.21,0,0,1-.21-.19s-.41-4,4.44-5.53,5.79.79,5.83.89a.21.21,0,1,1-.4.14s-.83-2-5.3-.63-4.15,5.05-4.15,5.08a.21.21,0,0,1-.18.24Z"></path><path d="M346.72,145.13a.21.21,0,0,1-.21-.22,6.65,6.65,0,0,1,5.49-4.59c4-.51,5.14,1.37,5.18,1.45a.21.21,0,0,1-.08.29.21.21,0,0,1-.29-.08s-1-1.71-4.75-1.24a6.4,6.4,0,0,0-5.13,4.18A.21.21,0,0,1,346.72,145.13Z"></path><path d="M343.86,142.89h0a.23.23,0,0,1-.2-.22c0-.13.2-3.06,2.31-4.19a6.1,6.1,0,0,1,4.11-.6.22.22,0,0,1,.15.26.21.21,0,0,1-.26.15,5.74,5.74,0,0,0-3.8.57c-1.89,1-2.08,3.8-2.08,3.83A.22.22,0,0,1,343.86,142.89Z"></path><path d="M370.23,142.51a.22.22,0,0,1-.22-.19c-.16-1.91-3.54-6-6.79-6h-.07a10.1,10.1,0,0,0-6,2.55.21.21,0,1,1-.29-.31,10.35,10.35,0,0,1,6.29-2.67h.08c3.52,0,7,4.34,7.22,6.43a.21.21,0,0,1-.2.23Z"></path><path d="M366.43,142a.22.22,0,0,1-.21-.22,4,4,0,0,0-2.68-3.62,4.28,4.28,0,0,0-4.61,1.35.21.21,0,0,1-.33-.27s2.15-2.56,5.08-1.48a4.51,4.51,0,0,1,3,4,.22.22,0,0,1-.22.22Z"></path></g><polygon points="335.51 146.09 338.64 183.02 348.86 185.89 363.53 185.85 375.87 150.47 382.19 144.41 359.2 138.68 347.61 143.55 341.17 138.68 331.8 141.88 335.51 146.09" style="fill:#F91944"></polygon><polygon points="335.51 146.09 347.61 143.55 346.75 181.14 338.64 183.02 335.51 146.09" style="opacity:0.2"></polygon><polygon points="338.64 183.02 346.75 181.14 363.53 185.85 348.86 185.89 338.64 183.02" style="opacity:0.4"></polygon><polygon points="347.61 143.55 375.87 150.47 382.19 144.41 359.2 138.68 347.61 143.55" style="opacity:0.2"></polygon><ellipse cx="358.24" cy="163.29" rx="6.61" ry="8.17" style="fill:#fff;opacity:0.7000000000000001"></ellipse><path d="M259.88,160.42H265l1.38-3.42h4.91l1.38,3.42h14.09V156l.48-.5,3.87,4.91h23.81v-3.85h-9.22v-3.23h7.83v-3.72h-7.83v-3h8.89v-3.85H291l-4.27,4.58v-4.58h-7.49v15l-6.66-15h-7.47l-7.78,17.63Zm38.3-16.69V158.8l-6.34-8.2Zm-30.36,9.59,1-2.46,1,2.46Z" style="fill:#263238"></path><polygon points="248.08 146.74 248.08 160.42 250.64 160.42 253.07 160.42 255.63 160.42 255.63 146.74 258.46 146.74 261.02 146.74 261.02 142.79 258.46 142.79 245.22 142.79 242.67 142.79 242.67 146.74 245.22 146.74 248.08 146.74" style="fill:#263238"></polygon><path d="M256.78,165.39h-4.91L244.08,183h7.65l1.38-3.42H258L259.4,183h7.74l-7.81-17.63Zm-2.21,10.53,1-2.46,1,2.46Z" style="fill:#263238"></path><polygon points="292.67 165.39 290.47 165.39 287.91 165.39 285.51 172.75 283.21 165.39 280.65 165.39 278.63 165.39 276.07 165.39 273.65 172.7 271.35 165.39 268.79 165.39 266.21 165.39 263.65 165.39 269.37 183.02 271.93 183.02 274.71 183.02 277.27 183.02 279.49 176.26 281.61 183.02 284.17 183.02 286.95 183.02 289.51 183.02 295.23 165.39 292.67 165.39" style="fill:#263238"></polygon><path d="M304.43,165.39h-4.91L291.74,183h7.64l1.38-3.42h4.9l1.39,3.42h7.74L307,165.39Zm-2.2,10.53,1-2.46,1,2.46Z" style="fill:#263238"></path><polygon points="328.74 165.39 326.45 165.39 323.9 165.39 321 170.25 318.09 165.39 315.54 165.39 312.83 165.39 310.27 165.39 317 176.62 317 183.02 319.55 183.02 321.99 183.02 324.54 183.02 324.54 176.7 331.29 165.39 328.74 165.39" style="fill:#263238"></polygon><g style="opacity:0.2"><path d="M248.08,146.74h-5.41v-4h15.79v4h-5.39v13.68h-5Z" style="fill:#fff"></path><path d="M271.26,157H263.8l-1.39,3.42h-5.08l7.78-17.63H270l7.81,17.63h-5.19Zm-1.47-3.68-2.26-5.64-2.27,5.64Z" style="fill:#fff"></path><path d="M286,154l-1.86,2v4.41h-4.94V142.79h4.94v7.33l6.82-7.33h5.49l-7.2,7.81,7.58,9.82h-5.79Z" style="fill:#fff"></path><path d="M312.33,156.57v3.85H298.18V142.79H312v3.85h-8.89v3H311v3.72h-7.83v3.23Z" style="fill:#fff"></path></g><g style="opacity:0.2"><path d="M258,179.6h-7.45L249.17,183h-5.09l7.79-17.63h4.91L264.59,183H259.4Zm-1.46-3.68-2.27-5.64L252,175.92Z" style="fill:#fff"></path><path d="M292.67,165.39,287,183h-5.34l-3.37-10.73L274.71,183h-5.34l-5.72-17.63h5.14l3.55,11.26,3.73-11.26h4.59l3.55,11.36,3.7-11.36Z" style="fill:#fff"></path><path d="M305.66,179.6h-7.45L296.82,183h-5.08l7.78-17.63h4.91L312.24,183h-5.19Zm-1.46-3.68-2.26-5.64-2.27,5.64Z" style="fill:#fff"></path><path d="M322,176.7V183h-5v-6.4l-6.73-11.23h5.27l4.18,7,4.18-7h4.84Z" style="fill:#fff"></path></g><path d="M217.83,193.16V417.39H434.08V193.16ZM394.91,337.22H230.64V247.3H394.91Z" style="fill:#263238"></path><path d="M217.83,193.16V417.39H434.08V193.16ZM394.91,337.22H230.64V247.3H394.91Z" style="fill:#fff;opacity:0.7000000000000001"></path><path d="M395.17,244.52H223.38v95.71H402V244.52Zm-160,89.74V250.49h155v83.77Z" style="fill:#263238"></path><path d="M223.38,244.52v95.71H395.17V244.52Zm166.83,89.74H228.34V250.49H390.21Z" style="fill:#fff;opacity:0.2"></path><rect x="214.79" y="344" width="219.29" height="73.4" style="fill:#263238"></rect><rect x="214.79" y="344" width="219.29" height="73.4" style="fill:#fff;opacity:0.5"></rect><rect x="225.26" y="349.39" width="14.5" height="6.72" style="fill:#fff;opacity:0.2"></rect><rect x="241.59" y="349.31" width="14.5" height="6.72" style="opacity:0.2"></rect><rect x="234.34" y="358.36" width="14.5" height="6.72" style="opacity:0.30000000000000004"></rect><rect x="258.45" y="368.81" width="14.5" height="6.72" style="fill:#fff;opacity:0.2"></rect><rect x="274.77" y="368.73" width="14.49" height="6.72" style="fill:#fff;opacity:0.5"></rect><rect x="267.52" y="377.78" width="14.5" height="6.72" style="fill:#fff;opacity:0.2"></rect><rect x="360.37" y="372.81" width="14.5" height="6.72" style="fill:#fff;opacity:0.2"></rect><rect x="344.04" y="372.89" width="14.5" height="6.72" style="opacity:0.1"></rect><rect x="351.29" y="363.84" width="14.49" height="6.72" style="opacity:0.2"></rect><rect x="237.81" y="402.7" width="14.5" height="6.72" style="opacity:0.2"></rect><rect x="221.48" y="402.78" width="14.49" height="6.72" style="fill:#fff;opacity:0.2"></rect><rect x="228.73" y="393.73" width="14.5" height="6.72" style="fill:#fff;opacity:0.2"></rect><rect x="297.66" y="349.86" width="14.5" height="6.72" style="opacity:0.1"></rect><rect x="313.98" y="349.78" width="14.49" height="6.72" style="opacity:0.30000000000000004"></rect><rect x="306.74" y="358.83" width="14.5" height="6.72" style="opacity:0.2"></rect><rect x="301.28" y="387.89" width="14.5" height="6.72" style="opacity:0.1"></rect><rect x="294.03" y="396.94" width="14.49" height="6.72" style="opacity:0.2"></rect><rect x="255.24" y="401.91" width="14.49" height="6.72" style="fill:#fff;opacity:0.2"></rect><rect x="389.01" y="397.38" width="14.5" height="6.72" style="fill:#fff;opacity:0.2"></rect><rect x="347.9" y="394.82" width="14.5" height="6.72" style="fill:#fff;opacity:0.2"></rect><rect x="381.77" y="406.44" width="14.49" height="6.72" style="opacity:0.2"></rect><rect x="383.98" y="350.99" width="14.49" height="6.72" style="fill:#fff;opacity:0.2"></rect><rect x="393.06" y="359.96" width="14.5" height="6.72" style="opacity:0.2"></rect><rect x="414.52" y="193.16" width="19.56" height="227.55" style="opacity:0.1"></rect><path d="M414.52,192.49h19.56v36.73H383.55S380.76,193.84,414.52,192.49Z" style="fill:#F91944"></path><path d="M414.52,192.49h19.56v36.73H383.55S380.76,193.84,414.52,192.49Z" style="opacity:0.2"></path><path d="M232.65,192.49H221.28a27.84,27.84,0,0,0-27.84,27.85v9a5.68,5.68,0,0,0,5.68,5.68h0a5.68,5.68,0,0,0,5.68-5.68v-9A27.85,27.85,0,0,1,232.65,192.49Z" style="fill:#F91944"></path><path d="M255.38,192.49H244a27.85,27.85,0,0,0-27.85,27.85v9a5.68,5.68,0,0,0,5.68,5.68h0a5.68,5.68,0,0,0,5.69-5.68v-9A27.84,27.84,0,0,1,255.38,192.49Z" style="fill:#F91944"></path><path d="M278.12,192.49H266.75a27.85,27.85,0,0,0-27.85,27.85v9a5.68,5.68,0,0,0,5.69,5.68h0a5.68,5.68,0,0,0,5.68-5.68v-9A27.85,27.85,0,0,1,278.12,192.49Z" style="fill:#F91944"></path><path d="M300.85,192.49H289.48a27.84,27.84,0,0,0-27.84,27.85v9a5.68,5.68,0,0,0,5.68,5.68h0a5.68,5.68,0,0,0,5.69-5.68v-9A27.84,27.84,0,0,1,300.85,192.49Z" style="fill:#F91944"></path><path d="M323.58,192.49H312.22a27.85,27.85,0,0,0-27.85,27.85v9a5.68,5.68,0,0,0,5.69,5.68h0a5.68,5.68,0,0,0,5.68-5.68v-9A27.85,27.85,0,0,1,323.58,192.49Z" style="fill:#F91944"></path><path d="M346.32,192.49H335a27.84,27.84,0,0,0-27.84,27.85v9a5.68,5.68,0,0,0,5.68,5.68h0a5.68,5.68,0,0,0,5.68-5.68v-9A27.85,27.85,0,0,1,346.32,192.49Z" style="fill:#F91944"></path><path d="M369.05,192.49H357.68a27.85,27.85,0,0,0-27.84,27.85v9a5.68,5.68,0,0,0,5.68,5.68h0a5.68,5.68,0,0,0,5.69-5.68v-9A27.84,27.84,0,0,1,369.05,192.49Z" style="fill:#F91944"></path><path d="M391.79,192.49H380.42a27.85,27.85,0,0,0-27.85,27.85v9a5.68,5.68,0,0,0,5.69,5.68h0a5.68,5.68,0,0,0,5.68-5.68v-9A27.85,27.85,0,0,1,391.79,192.49Z" style="fill:#F91944"></path><path d="M244,192.49H232.65a27.85,27.85,0,0,0-27.85,27.85v9a5.68,5.68,0,0,0,5.69,5.68h0a5.68,5.68,0,0,0,5.68-5.68v-9A27.85,27.85,0,0,1,244,192.49Z" style="fill:#F91944"></path><path d="M266.75,192.49H255.38a27.84,27.84,0,0,0-27.84,27.85v9a5.68,5.68,0,0,0,5.68,5.68h0a5.68,5.68,0,0,0,5.68-5.68v-9A27.85,27.85,0,0,1,266.75,192.49Z" style="fill:#F91944"></path><path d="M289.48,192.49H278.12a27.85,27.85,0,0,0-27.85,27.85v9A5.68,5.68,0,0,0,256,235h0a5.68,5.68,0,0,0,5.69-5.68v-9A27.84,27.84,0,0,1,289.48,192.49Z" style="fill:#F91944"></path><path d="M312.22,192.49H300.85A27.84,27.84,0,0,0,273,220.34v9a5.68,5.68,0,0,0,5.68,5.68h0a5.68,5.68,0,0,0,5.68-5.68v-9A27.85,27.85,0,0,1,312.22,192.49Z" style="fill:#F91944"></path><path d="M335,192.49H323.58a27.85,27.85,0,0,0-27.84,27.85v9a5.68,5.68,0,0,0,5.68,5.68h0a5.68,5.68,0,0,0,5.69-5.68v-9A27.84,27.84,0,0,1,335,192.49Z" style="fill:#F91944"></path><path d="M357.68,192.49H346.32a27.85,27.85,0,0,0-27.85,27.85v9a5.68,5.68,0,0,0,5.69,5.68h0a5.68,5.68,0,0,0,5.68-5.68v-9A27.85,27.85,0,0,1,357.68,192.49Z" style="fill:#F91944"></path><path d="M380.42,192.49H369.05a27.84,27.84,0,0,0-27.84,27.85v9a5.68,5.68,0,0,0,5.68,5.68h0a5.68,5.68,0,0,0,5.68-5.68v-9A27.85,27.85,0,0,1,380.42,192.49Z" style="fill:#F91944"></path><path d="M403.15,192.49H391.79a27.85,27.85,0,0,0-27.85,27.85v9a5.68,5.68,0,0,0,5.68,5.68h0a5.68,5.68,0,0,0,5.69-5.68v-9A27.84,27.84,0,0,1,403.15,192.49Z" style="fill:#F91944"></path><path d="M414.52,192.49H403.15a27.84,27.84,0,0,0-27.84,27.85v9A5.68,5.68,0,0,0,381,235h0a5.68,5.68,0,0,0,5.69-5.68v-9A27.84,27.84,0,0,1,414.52,192.49Z" style="fill:#F91944"></path><g style="opacity:0.7000000000000001"><path d="M244,192.49H232.65a27.85,27.85,0,0,0-27.85,27.85v9a5.68,5.68,0,0,0,5.69,5.68h0a5.68,5.68,0,0,0,5.68-5.68v-9A27.85,27.85,0,0,1,244,192.49Z" style="fill:#fff"></path><path d="M266.75,192.49H255.38a27.84,27.84,0,0,0-27.84,27.85v9a5.68,5.68,0,0,0,5.68,5.68h0a5.68,5.68,0,0,0,5.68-5.68v-9A27.85,27.85,0,0,1,266.75,192.49Z" style="fill:#fff"></path><path d="M289.48,192.49H278.12a27.85,27.85,0,0,0-27.85,27.85v9A5.68,5.68,0,0,0,256,235h0a5.68,5.68,0,0,0,5.69-5.68v-9A27.84,27.84,0,0,1,289.48,192.49Z" style="fill:#fff"></path><path d="M312.22,192.49H300.85A27.84,27.84,0,0,0,273,220.34v9a5.68,5.68,0,0,0,5.68,5.68h0a5.68,5.68,0,0,0,5.68-5.68v-9A27.85,27.85,0,0,1,312.22,192.49Z" style="fill:#fff"></path><path d="M335,192.49H323.58a27.85,27.85,0,0,0-27.84,27.85v9a5.68,5.68,0,0,0,5.68,5.68h0a5.68,5.68,0,0,0,5.69-5.68v-9A27.84,27.84,0,0,1,335,192.49Z" style="fill:#fff"></path><path d="M357.68,192.49H346.32a27.85,27.85,0,0,0-27.85,27.85v9a5.68,5.68,0,0,0,5.69,5.68h0a5.68,5.68,0,0,0,5.68-5.68v-9A27.85,27.85,0,0,1,357.68,192.49Z" style="fill:#fff"></path><path d="M380.42,192.49H369.05a27.84,27.84,0,0,0-27.84,27.85v9a5.68,5.68,0,0,0,5.68,5.68h0a5.68,5.68,0,0,0,5.68-5.68v-9A27.85,27.85,0,0,1,380.42,192.49Z" style="fill:#fff"></path><path d="M403.15,192.49H391.79a27.85,27.85,0,0,0-27.85,27.85v9a5.68,5.68,0,0,0,5.68,5.68h0a5.68,5.68,0,0,0,5.69-5.68v-9A27.84,27.84,0,0,1,403.15,192.49Z" style="fill:#fff"></path></g></g><g id="freepik--Car--inject-68"><path d="M254.67,365h15.42c4.05,0,7.33,11.63,7.33,26s-3.28,26-7.33,26H254.67c-4,0-7.33-11.63-7.33-26S250.63,365,254.67,365Z" style="fill:#263238"></path><path d="M253.53,366.82c3.38,0,6.12,10.81,6.12,24.14s-2.74,24.14-6.12,24.14S247.4,404.29,247.4,391,250.14,366.82,253.53,366.82Z" style="fill:#fff;opacity:0.2"></path><path d="M253,377.92c1.82,0,3.3,5.84,3.3,13s-1.48,13-3.3,13-3.31-5.84-3.31-13S251.17,377.92,253,377.92Z" style="fill:#fff;opacity:0.6000000000000001"></path><path d="M253.53,379.71c1.57,0,2.85,5,2.85,11.25s-1.28,11.25-2.85,11.25-2.86-5-2.86-11.25S252,379.71,253.53,379.71Z" style="fill:#fff;opacity:0.6000000000000001"></path><path d="M254.88,385.33c.79,0,1.42,2.52,1.42,5.63s-.63,5.63-1.42,5.63-1.43-2.52-1.43-5.63S254.09,385.33,254.88,385.33Z" style="fill:#263238"></path><path d="M254.18,388.15c.39,0,.71,1.26.71,2.81s-.32,2.81-.71,2.81-.72-1.26-.72-2.81S253.78,388.15,254.18,388.15Z" style="fill:#fff;opacity:0.2"></path><path d="M209.23,365h15.42c4,0,7.32,11.63,7.32,26s-3.28,26-7.32,26H209.23c-4,0-7.33-11.63-7.33-26S205.18,365,209.23,365Z" style="fill:#263238"></path><path d="M208.08,366.82c3.38,0,6.12,10.81,6.12,24.14s-2.74,24.14-6.12,24.14S202,404.29,202,391,204.7,366.82,208.08,366.82Z" style="fill:#fff;opacity:0.2"></path><path d="M207.55,377.92c1.83,0,3.31,5.84,3.31,13s-1.48,13-3.31,13-3.31-5.84-3.31-13S205.72,377.92,207.55,377.92Z" style="fill:#fff;opacity:0.6000000000000001"></path><path d="M208.08,379.71c1.58,0,2.85,5,2.85,11.25s-1.27,11.25-2.85,11.25-2.85-5-2.85-11.25S206.5,379.71,208.08,379.71Z" style="fill:#fff;opacity:0.6000000000000001"></path><path d="M209.43,385.33c.79,0,1.43,2.52,1.43,5.63s-.64,5.63-1.43,5.63S208,394.07,208,391,208.64,385.33,209.43,385.33Z" style="fill:#263238"></path><path d="M208.73,388.15c.4,0,.72,1.26.72,2.81s-.32,2.81-.72,2.81S208,392.51,208,391,208.34,388.15,208.73,388.15Z" style="fill:#fff;opacity:0.2"></path><path d="M137.67,365h15.41c4,0,7.33,11.63,7.33,26s-3.28,26-7.33,26H137.67c-4,0-7.33-11.63-7.33-26S133.62,365,137.67,365Z" style="fill:#263238"></path><path d="M136.52,366.82c3.38,0,6.12,10.81,6.12,24.14s-2.74,24.14-6.12,24.14S130.4,404.29,130.4,391,133.14,366.82,136.52,366.82Z" style="fill:#fff;opacity:0.2"></path><path d="M136,377.92c1.83,0,3.31,5.84,3.31,13s-1.48,13-3.31,13-3.31-5.84-3.31-13S134.16,377.92,136,377.92Z" style="fill:#fff;opacity:0.6000000000000001"></path><path d="M136.52,379.71c1.58,0,2.85,5,2.85,11.25s-1.27,11.25-2.85,11.25-2.86-5-2.86-11.25S134.94,379.71,136.52,379.71Z" style="fill:#fff;opacity:0.6000000000000001"></path><path d="M137.87,385.33c.79,0,1.43,2.52,1.43,5.63s-.64,5.63-1.43,5.63-1.43-2.52-1.43-5.63S137.08,385.33,137.87,385.33Z" style="fill:#263238"></path><path d="M137.17,388.15c.39,0,.71,1.26.71,2.81s-.32,2.81-.71,2.81-.71-1.26-.71-2.81S136.78,388.15,137.17,388.15Z" style="fill:#fff;opacity:0.2"></path><path d="M92.22,365h15.42c4,0,7.33,11.63,7.33,26s-3.28,26-7.33,26H92.22c-4,0-7.33-11.63-7.33-26S88.17,365,92.22,365Z" style="fill:#263238"></path><path d="M91.07,366.82c3.38,0,6.13,10.81,6.13,24.14s-2.75,24.14-6.13,24.14S85,404.29,85,391,87.69,366.82,91.07,366.82Z" style="fill:#fff;opacity:0.2"></path><path d="M90.54,377.92c1.83,0,3.31,5.84,3.31,13s-1.48,13-3.31,13-3.31-5.84-3.31-13S88.72,377.92,90.54,377.92Z" style="fill:#fff;opacity:0.6000000000000001"></path><path d="M91.07,379.71c1.58,0,2.86,5,2.86,11.25s-1.28,11.25-2.86,11.25-2.85-5-2.85-11.25S89.5,379.71,91.07,379.71Z" style="fill:#fff;opacity:0.6000000000000001"></path><path d="M92.42,385.33c.79,0,1.43,2.52,1.43,5.63s-.64,5.63-1.43,5.63S91,394.07,91,391,91.64,385.33,92.42,385.33Z" style="fill:#263238"></path><path d="M91.72,388.15c.4,0,.72,1.26.72,2.81s-.32,2.81-.72,2.81S91,392.51,91,391,91.33,388.15,91.72,388.15Z" style="fill:#fff;opacity:0.2"></path><path d="M292.52,374.23c0,2.43-.31,6.29-.69,10.14-.28,2.81-.59,5.6-.85,7.83a5.21,5.21,0,0,1-5.19,4.6H151.09a5.23,5.23,0,0,1-5.2-4.86c-.95-12.95-4.44-27-9.52-27-5.84,0-7,17.8-7,31.82H104.22a4.21,4.21,0,0,1-4.21-4.06c-.67-20.1-5.72-30.11-10.29-27.26-5.53,3.46-4.85,22.23-5.53,29.26a1.62,1.62,0,0,1-2.56,1.15,17.73,17.73,0,0,1-2.18-1.9c-1.5-1.59-4.39-13.85-6-20.57-.52-2.13-.92-3.7-1.11-4.2-.39-1.06,4-45.4,15.92-52.6,0,0,7.44-29.84,18.67-38.54a13.39,13.39,0,0,1,1.48-1,10,10,0,0,1,2.14-1c26-8.14,99.47-7.77,116.28,2.9q.54.35,1,.69c1.74,1.34,3.45,2.79,5.11,4.31,10.81,9.93,19.78,23,24.35,30.29l.08.12c1.6,2.54,2.65,4.35,3,5l.13.22,0,.07C289,344,288.14,351.82,290.77,370A6.29,6.29,0,0,1,292.52,374.23Z" style="fill:#F91944"></path><path d="M289,390.12H248.87v-7a2.28,2.28,0,0,0-2.27-2.28H220.09a2.28,2.28,0,0,0-2.27,2.28v7H163.3a3.63,3.63,0,0,1-3.62-3.34c-.53-6.58-.41-12.95-.41-13.27a10.83,10.83,0,0,1,1.14-2.57s.44-16.82-1.93-26.11S149,323,149,323l-2.6-43.87c-15.68-2.59-32.63-1.64-39.48-1.08-11.23,8.7-18.67,38.54-18.67,38.54-11.94,7.2-16.31,51.54-15.92,52.6.19.5.59,2.07,1.11,4.2,1.64,6.72,4.53,19,6,20.57a17.67,17.67,0,0,0,2.17,1.9,1.61,1.61,0,0,0,2.57-1.14c.68-7,0-25.81,5.53-29.27,4.57-2.85,9.62,7.16,10.29,27.26a4.21,4.21,0,0,0,4.21,4.06h25.15c0-14,1.16-31.82,7-31.82,5.09,0,8.58,14,9.52,27a5.2,5.2,0,0,0,5.2,4.8h134.7a5.22,5.22,0,0,0,5.19-4.61c.26-2.23.57-5,.85-7.82Z" style="opacity:0.2"></path><path d="M153.73,328.61s3.16,9.69,26.11,21.56,48.51,18.72,75,11.87c20.69-5.34,18.31-28.28,18.31-28.28s-.42-3.13-12.67-14c0,0-79,8.43-108.93,4.3Z" style="fill:#fff;opacity:0.2"></path><path d="M226.8,279c-4.3,1.58-12.94,2-30.15,2-21.56,0-49.65-3.43-60.13-4.42-6.87-.65-20,0-28.14.48a10,10,0,0,1,2.14-1C136.48,268,210,268.33,226.8,279Z" style="fill:#fff;opacity:0.2"></path><path d="M132.11,362.63c-7.77,1.58-7.46,29.28-7.46,29.28H100.92c-.6-17.41-5-31.26-11.7-30.07s-7.09,20.57-7.09,20.57c-2.24-.67-5.92-5.19-8.71-9,1.64,6.72,4.53,19,6,20.57a17.67,17.67,0,0,0,2.17,1.9,1.61,1.61,0,0,0,2.57-1.14c.68-7,0-25.81,5.53-29.27,4.57-2.85,9.62,7.16,10.29,27.26a4.21,4.21,0,0,0,4.21,4.06h25.15c0-14,1.16-31.82,7-31.82,5.09,0,8.58,14,9.52,27a5.2,5.2,0,0,0,5.2,4.8h5.49l-2.78-1.08a7.18,7.18,0,0,1-4.51-5.68C147,373.17,139.31,361.17,132.11,362.63Z" style="opacity:0.2"></path><path d="M164.08,344.7c4.55-2,24.53,16.56,26.37,22.12s-19.35,4-22.86,2.14S160.33,346.36,164.08,344.7Z" style="fill:#fff;opacity:0.7000000000000001"></path><path d="M282.26,345.07c-5.13-2-19.68,16.15-19.9,21.58s20.52,3.89,23.49,2.09S286.49,346.69,282.26,345.07Z" style="fill:#fff;opacity:0.7000000000000001"></path><path d="M162.52,370.41s97.71,6.46,124.67,0C287.19,370.41,263.56,383.2,162.52,370.41Z" style="fill:#fff;opacity:0.2"></path><path d="M117.8,278.76s-7.49,13.85-10.28,39.57c0,0-3.17,4.52-3.76,7.29s-3.21,35.56-.25,45.06l1.16,10.55,16.82,2-15-3.49s-2-9.61-2.15-10.75c-2.37-13.25,1-41.73,1-41.73l3.78-7.92S110.31,302,117.8,278.76Z" style="opacity:0.2"></path><path d="M146.38,323l-1-41.43s-25.3-2.06-42.44,1.52c0,0-10.55,17.56-13.72,33.5,0,0,15.7-1.86,19.83,2.69Z" style="fill:#263238"></path><path d="M260.53,319.73s-7.69,9.93-34.59,9.93S151.6,324,151.6,324l-3.88-42.55s55.89,3.4,85.18,2.52c10.81,9.93,19.78,23,24.35,30.29l.08.12,3,5,.13.22Z" style="fill:#263238"></path><path d="M136.52,351.36s0-19.78,1.36-23.34a15.65,15.65,0,0,1,3.54-5.48h4s-5.33,3.23-6,7.12S136.52,351.36,136.52,351.36Z" style="opacity:0.2"></path><path d="M126.43,358.87s2.54-6.33,12.94-5.53,16.14,15.42,16.14,15.42-3.49,4.29-4.91,1.65S140.08,350.76,126.43,358.87Z" style="fill:#fff;opacity:0.2"></path><path d="M98.35,366s-3.81-8.55-9.13-8.33-7.69,6.95-7.69,6.95.6-6.34,4.35-8.91,6.83-2.61,10.55.2c3.5,2.63,5.15,10.91,5.15,10.91A2.82,2.82,0,0,1,98.35,366Z" style="fill:#fff;opacity:0.2"></path><path d="M107.51,331.91s5.67,1,5.93,2.63-6.59.93-6.59.93A8,8,0,0,1,107.51,331.91Z" style="opacity:0.2"></path><path d="M198.43,370.41l-9.49-13.71s21,9.3,41.73,9.3,31.69-5.15,31.69-5.15l-5.29,10.42S236.43,373.84,198.43,370.41Z" style="opacity:0.2"></path><rect x="219" y="383.2" width="27.3" height="10.57" rx="1.09" style="fill:#fff"></rect><path d="M181.29,361.77a6.62,6.62,0,1,1-6.61-6.62A6.61,6.61,0,0,1,181.29,361.77Z" style="fill:#fff"></path><path d="M284,360.41a6.62,6.62,0,1,1-6.62-6.62A6.62,6.62,0,0,1,284,360.41Z" style="fill:#fff"></path><path d="M270.8,365.53a2.86,2.86,0,1,1-2.85-2.85A2.86,2.86,0,0,1,270.8,365.53Z" style="fill:#fff"></path><path d="M188,365.53a2.86,2.86,0,1,1-2.85-2.85A2.86,2.86,0,0,1,188,365.53Z" style="fill:#fff"></path><path d="M158.67,284s45.58,23.47,62.42,43c0,0-16.66-19.25-29.32-26.9,0,0,23.74,9.23,40.88,26.9,0,0,19.07-2.2,26-7.3,0,0-12.41-23.2-26-33.58C232.65,286.15,197.31,286.88,158.67,284Z" style="fill:#fff;opacity:0.2"></path></g></svg>